<?xml version="1.0" standalone="no"?>
<!DOCTYPE svg PUBLIC "-//W3C//DTD SVG 20010904//EN"
 "http://www.w3.org/TR/2001/REC-SVG-20010904/DTD/svg10.dtd">
<svg version="1.0" xmlns="http://www.w3.org/2000/svg"
 width="500.000000pt" height="500.000000pt" viewBox="0 0 500.000000 500.000000"
 preserveAspectRatio="xMidYMid meet">
<metadata>
Created by potrace 1.11, written by Peter Selinger 2001-2013
</metadata>
<g transform="translate(0.000000,500.000000) scale(0.100000,-0.100000)"
fill="#000000" stroke="none">
<path d="M0 2500 l0 -2500 2500 0 2500 0 0 2500 0 2500 -2500 0 -2500 0 0
-2500z m2028 1048 l2 -748 465 0 465 0 2 748 3 747 258 3 c202 2 257 0 257
-10 4 -851 -2 -1663 -12 -1669 -6 -4 -20 -3 -30 2 -17 9 -18 49 -18 815 l0
804 -197 -2 -198 -3 -2 -735 c-2 -404 -5 -740 -7 -747 -7 -18 -1026 -19 -1044
-1 -9 9 -12 189 -12 750 l0 738 -185 -2 -185 -3 0 -797 c0 -713 -1 -798 -16
-812 -12 -12 -20 -13 -35 -6 -19 10 -19 31 -19 839 0 455 3 831 7 835 4 3 117
5 252 4 l246 -3 3 -747z m-454 -1174 c15 -14 16 -99 16 -812 l0 -797 185 -3
185 -2 0 739 c0 659 2 741 16 755 14 14 74 16 517 16 276 0 508 -4 515 -8 10
-7 13 -164 15 -753 l2 -744 198 -3 197 -2 0 804 c0 669 2 805 14 815 14 12 46
5 46 -10 0 -12 0 -1646 0 -1659 0 -7 -88 -9 -257 -8 l-258 3 -3 748 -2 747
-465 0 -465 0 -2 -747 -3 -748 -250 0 -250 0 -3 829 c-2 818 -1 856 29 856 4
0 15 -7 23 -16z"/>
</g>
</svg>
