<?xml version="1.0" ?><!DOCTYPE svg  PUBLIC '-//W3C//DTD SVG 1.1//EN'  'http://www.w3.org/Graphics/SVG/1.1/DTD/svg11.dtd'><svg height="1.70667in" style="shape-rendering:geometricPrecision; text-rendering:geometricPrecision; image-rendering:optimizeQuality; fill-rule:evenodd; clip-rule:evenodd" version="1.1" viewBox="0 0 8379 8379" width="1.70667in" xml:space="preserve" xmlns="http://www.w3.org/2000/svg" xmlns:xlink="http://www.w3.org/1999/xlink"><defs><style type="text/css">
   <![CDATA[
    .fil0 {fill:none}
    .fil1 {fill:black;fill-rule:nonzero}
   ]]>
  </style></defs><g id="Layer_x0020_1"><rect class="fil0" height="8379" width="8379"/><g id="_1053195928"><path class="fil1" d="M3220 3427c-392,0 -716,287 -766,660 -5,34 -8,68 -8,102 0,422 347,763 774,763 427,0 773,-341 773,-763 0,-113 -25,-221 -71,-318 -122,-262 -391,-444 -702,-444z"/><path class="fil1" d="M5930 4129c-31,-393 -364,-702 -771,-702 -314,0 -584,185 -705,450 -43,95 -68,201 -68,312 0,422 347,763 773,763 427,0 774,-341 774,-763 0,-20 -1,-40 -3,-60z"/></g></g></svg>
