<?xml version="1.0" encoding="utf-8"?>
<!-- Generator: Adobe Illustrator 22.1.0, SVG Export Plug-In . SVG Version: 6.00 Build 0)  -->
<svg version="1.1" id="Layer_1" xmlns="http://www.w3.org/2000/svg" xmlns:xlink="http://www.w3.org/1999/xlink" x="0px" y="0px"
	 viewBox="0 0 595.3 187" style="enable-background:new 0 0 595.3 187;" xml:space="preserve">
<style type="text/css">
	.st0{fill:none;stroke:#FFFFFF;stroke-width:3;stroke-linecap:round;stroke-linejoin:round;stroke-miterlimit:10;}
</style>
<polyline class="st0" points="66.6,89.4 66.6,23.3 84.6,23.3 84.6,84.4 125.1,84.4 125.1,23.3 143.8,23.3 143.8,89.4 "/>
<polyline class="st0" points="66.6,101.3 66.6,167.4 84.6,167.4 84.6,106.2 125.1,106.2 125.1,167.4 143.8,167.4 143.8,101.3 "/>
<path class="st0" d="M164.4,56.3v-33h18v108.5c0,0-0.8,15.7,16.4,18.7"/>
<path class="st0" d="M241.2,56.3v-33h-18v108.5c0,0,0.8,15.7-16.4,18.7"/>
<path class="st0" d="M164.4,66.1v63.8c0,6,1.1,12,3.5,17.6c4,9.4,15,20.3,33.3,19.8c25.8-0.7,33-9.9,37.6-23.1
	c1.7-5,2.5-10.3,2.5-15.6V66.1"/>
<path class="st0" d="M305.6,105.8c0,0,31.6,21.1,14.8,37.6c-10.6,10.4-28.3,7.9-36.1-4.7c-1.8-2.9-3.4-6.3-4.7-10.5l-16.5,0
	c0,0-0.4,35.3,36.9,39.2s42.7-30.8,42.7-30.8s5.8-31.5-36.3-49.7"/>
<path class="st0" d="M300,81.4c0,0-27-11.2-18.8-29.6c3.1-7.1,10.1-11.7,17.8-12.3c8.5-0.7,19.4,2.1,22.3,20.1h18.2
	c0,0,2.9-35.1-35.5-36.3c-38.4-1.2-42.9,33-42.9,33s-7.4,26,37.5,45"/>
<polyline class="st0" points="408.3,89.4 408.3,85.2 377.4,85.2 377.4,40.6 435.1,40.6 435.1,23.3 358.8,23.3 358.8,89.4 "/>
<polyline class="st0" points="407.8,101.3 407.8,105.5 376.9,105.5 376.9,150 434.6,150 434.6,167.4 358.3,167.4 358.3,101.3 "/>
<polyline class="st0" points="486.7,23.3 452.9,23.3 452.9,39.8 481.3,39.8 481.3,167.4 486.7,167.4 "/>
<polyline class="st0" points="495.1,23.3 528.9,23.3 528.9,39.8 500.4,39.8 500.4,167.4 495.1,167.4 "/>
</svg>
