<?xml version="1.0" encoding="utf-8"?>
<!-- Generator: Adobe Illustrator 22.1.0, SVG Export Plug-In . SVG Version: 6.00 Build 0)  -->
<svg version="1.1" id="Layer_1" xmlns="http://www.w3.org/2000/svg" xmlns:xlink="http://www.w3.org/1999/xlink" x="0px" y="0px"
	 viewBox="0 0 496.7 187" style="enable-background:new 0 0 496.7 187;" xml:space="preserve">
<style type="text/css">
	.st0{fill:none;stroke:url(#SVGID_1_);stroke-width:3;stroke-linecap:round;stroke-linejoin:round;stroke-miterlimit:10;}
	.st1{fill:none;stroke:url(#SVGID_2_);stroke-width:3;stroke-linecap:round;stroke-linejoin:round;stroke-miterlimit:10;}
	.st2{fill:none;stroke:url(#SVGID_3_);stroke-width:3;stroke-linecap:round;stroke-linejoin:round;stroke-miterlimit:10;}
	.st3{fill:none;stroke:url(#SVGID_4_);stroke-width:3;stroke-linecap:round;stroke-linejoin:round;stroke-miterlimit:10;}
	.st4{fill:none;stroke:url(#SVGID_5_);stroke-width:3;stroke-linecap:round;stroke-linejoin:round;stroke-miterlimit:10;}
	.st5{fill:none;stroke:url(#SVGID_6_);stroke-width:3;stroke-linecap:round;stroke-linejoin:round;stroke-miterlimit:10;}
	.st6{fill:none;stroke:url(#SVGID_7_);stroke-width:3;stroke-linecap:round;stroke-linejoin:round;stroke-miterlimit:10;}
	.st7{fill:none;stroke:url(#SVGID_8_);stroke-width:3;stroke-linecap:round;stroke-linejoin:round;stroke-miterlimit:10;}
	.st8{fill:none;stroke:url(#SVGID_9_);stroke-width:3;stroke-linecap:round;stroke-linejoin:round;stroke-miterlimit:10;}
	.st9{fill:none;stroke:url(#SVGID_10_);stroke-width:3;stroke-linecap:round;stroke-linejoin:round;stroke-miterlimit:10;}
	.st10{fill:none;stroke:url(#SVGID_11_);stroke-width:3;stroke-linecap:round;stroke-linejoin:round;stroke-miterlimit:10;}
</style>
<linearGradient id="SVGID_1_" gradientUnits="userSpaceOnUse" x1="63.2756" y1="21.7687" x2="63.2756" y2="90.8598">
	<stop  offset="0" style="stop-color:#8E79B8"/>
	<stop  offset="1" style="stop-color:#DFA7CC;stop-opacity:0.6"/>
</linearGradient>
<polyline class="st0" points="24.7,89.4 24.7,23.3 42.6,23.3 42.6,84.4 83.1,84.4 83.1,23.3 101.9,23.3 101.9,89.4 "/>
<linearGradient id="SVGID_2_" gradientUnits="userSpaceOnUse" x1="63.2756" y1="168.861" x2="63.2756" y2="99.7699">
	<stop  offset="0" style="stop-color:#8E79B8"/>
	<stop  offset="1" style="stop-color:#DFA7CC;stop-opacity:0.6"/>
</linearGradient>
<polyline class="st1" points="24.7,101.3 24.7,167.4 42.6,167.4 42.6,106.2 83.1,106.2 83.1,167.4 101.9,167.4 101.9,101.3 "/>
<linearGradient id="SVGID_3_" gradientUnits="userSpaceOnUse" x1="139.6814" y1="21.7687" x2="139.6814" y2="151.9845">
	<stop  offset="0" style="stop-color:#8E79B8"/>
	<stop  offset="1" style="stop-color:#DFA7CC;stop-opacity:0.6"/>
</linearGradient>
<path class="st2" d="M122.5,56.3v-33h18v108.5c0,0-0.8,15.7,16.4,18.7"/>
<linearGradient id="SVGID_4_" gradientUnits="userSpaceOnUse" x1="182.0867" y1="21.7687" x2="182.0867" y2="151.9845">
	<stop  offset="0" style="stop-color:#8E79B8"/>
	<stop  offset="1" style="stop-color:#DFA7CC;stop-opacity:0.6"/>
</linearGradient>
<path class="st3" d="M199.3,56.3v-33h-18v108.5c0,0,0.8,15.7-16.4,18.7"/>
<linearGradient id="SVGID_5_" gradientUnits="userSpaceOnUse" x1="160.8841" y1="64.556" x2="160.8841" y2="168.7081">
	<stop  offset="0" style="stop-color:#8E79B8"/>
	<stop  offset="1" style="stop-color:#DFA7CC;stop-opacity:0.6"/>
</linearGradient>
<path class="st4" d="M122.5,66.1v63.8c0,6,1.1,12,3.5,17.6c4,9.4,15,20.3,33.3,19.8c25.8-0.7,33-9.9,37.6-23.1
	c1.7-5,2.5-10.3,2.5-15.6V66.1"/>
<linearGradient id="SVGID_6_" gradientUnits="userSpaceOnUse" x1="261.1066" y1="169.184" x2="261.1066" y2="85.3766">
	<stop  offset="0" style="stop-color:#8E79B8"/>
	<stop  offset="1" style="stop-color:#DFA7CC;stop-opacity:0.6"/>
</linearGradient>
<path class="st5" d="M263.7,105.8c0,0,31.6,21.1,14.8,37.6c-10.6,10.4-28.3,7.9-36.1-4.7c-1.8-2.9-3.4-6.3-4.7-10.5l-16.5,0
	c0,0-0.4,35.3,36.9,39.2s42.7-30.8,42.7-30.8s5.8-31.5-36.3-49.7"/>
<linearGradient id="SVGID_7_" gradientUnits="userSpaceOnUse" x1="258.0873" y1="21.7368" x2="258.0873" y2="102.7699">
	<stop  offset="0" style="stop-color:#8E79B8"/>
	<stop  offset="1" style="stop-color:#DFA7CC;stop-opacity:0.6"/>
</linearGradient>
<path class="st6" d="M258.1,81.4c0,0-27-11.2-18.8-29.6c3.1-7.1,10.1-11.7,17.8-12.3c8.5-0.7,19.4,2.1,22.3,20.1h18.2
	c0,0,2.9-35.1-35.5-36.3c-38.4-1.2-42.9,33-42.9,33s-7.4,26,37.5,45"/>
<linearGradient id="SVGID_8_" gradientUnits="userSpaceOnUse" x1="355.0244" y1="21.7687" x2="355.0244" y2="90.8598">
	<stop  offset="0" style="stop-color:#8E79B8"/>
	<stop  offset="1" style="stop-color:#DFA7CC;stop-opacity:0.6"/>
</linearGradient>
<polyline class="st7" points="366.4,89.4 366.4,85.2 335.4,85.2 335.4,40.6 393.2,40.6 393.2,23.3 316.9,23.3 316.9,89.4 "/>
<linearGradient id="SVGID_9_" gradientUnits="userSpaceOnUse" x1="354.5259" y1="168.861" x2="354.5259" y2="99.7699">
	<stop  offset="0" style="stop-color:#8E79B8"/>
	<stop  offset="1" style="stop-color:#DFA7CC;stop-opacity:0.6"/>
</linearGradient>
<polyline class="st8" points="365.9,101.3 365.9,105.5 334.9,105.5 334.9,150 392.7,150 392.7,167.4 316.4,167.4 316.4,101.3 "/>
<linearGradient id="SVGID_10_" gradientUnits="userSpaceOnUse" x1="427.8319" y1="21.7687" x2="427.8319" y2="168.861">
	<stop  offset="0" style="stop-color:#8E79B8"/>
	<stop  offset="1" style="stop-color:#DFA7CC;stop-opacity:0.6"/>
</linearGradient>
<polyline class="st9" points="444.7,23.3 410.9,23.3 410.9,39.8 439.4,39.8 439.4,167.4 444.7,167.4 "/>
<linearGradient id="SVGID_11_" gradientUnits="userSpaceOnUse" x1="470.0207" y1="21.7687" x2="470.0207" y2="168.861">
	<stop  offset="0" style="stop-color:#8E79B8"/>
	<stop  offset="1" style="stop-color:#DFA7CC;stop-opacity:0.6"/>
</linearGradient>
<polyline class="st10" points="453.1,23.3 486.9,23.3 486.9,39.8 458.5,39.8 458.5,167.4 453.1,167.4 "/>
</svg>
